<mxfile host="Electron" agent="Mozilla/5.0 (Windows NT 10.0; Win64; x64) AppleWebKit/537.36 (KHTML, like Gecko) draw.io/26.2.15 Chrome/134.0.6998.205 Electron/35.2.1 Safari/537.36" version="26.2.15">
  <diagram name="Page-1" id="2YBvvXClWsGukQMizWep">
    <mxGraphModel dx="1426" dy="841" grid="1" gridSize="10" guides="1" tooltips="1" connect="1" arrows="1" fold="1" page="1" pageScale="1" pageWidth="850" pageHeight="1100" math="0" shadow="0">
      <root>
        <mxCell id="0" />
        <mxCell id="1" parent="0" />
        <mxCell id="kEFKGJNfDM-Wt6kaFjFb-57" style="edgeStyle=elbowEdgeStyle;rounded=0;orthogonalLoop=1;jettySize=auto;html=1;elbow=vertical;curved=0;" parent="1" edge="1">
          <mxGeometry relative="1" as="geometry">
            <mxPoint x="765" y="520" as="sourcePoint" />
            <mxPoint x="265" y="520" as="targetPoint" />
          </mxGeometry>
        </mxCell>
        <mxCell id="kEFKGJNfDM-Wt6kaFjFb-53" value="" style="endArrow=none;dashed=1;html=1;rounded=0;" parent="1" target="kEFKGJNfDM-Wt6kaFjFb-42" edge="1">
          <mxGeometry width="50" height="50" relative="1" as="geometry">
            <mxPoint x="770" y="880" as="sourcePoint" />
            <mxPoint x="680" y="670" as="targetPoint" />
          </mxGeometry>
        </mxCell>
        <mxCell id="kEFKGJNfDM-Wt6kaFjFb-7" value="Authentication page" style="html=1;verticalAlign=bottom;endArrow=open;dashed=1;endSize=8;curved=0;rounded=0;" parent="1" target="kEFKGJNfDM-Wt6kaFjFb-48" edge="1">
          <mxGeometry x="-0.4343" y="10" relative="1" as="geometry">
            <mxPoint x="270" y="420" as="sourcePoint" />
            <mxPoint x="520" y="425.5" as="targetPoint" />
            <mxPoint as="offset" />
          </mxGeometry>
        </mxCell>
        <mxCell id="kEFKGJNfDM-Wt6kaFjFb-17" value="Generate QR with a session token &lt;br&gt;and&lt;br&gt;&amp;nbsp;wait for user to scan" style="text;html=1;align=center;verticalAlign=middle;resizable=0;points=[];autosize=1;strokeColor=none;fillColor=none;" parent="1" vertex="1">
          <mxGeometry x="305" y="160" width="210" height="60" as="geometry" />
        </mxCell>
        <mxCell id="kEFKGJNfDM-Wt6kaFjFb-23" value="AuthenticationController" style="shape=umlLifeline;perimeter=lifelinePerimeter;whiteSpace=wrap;html=1;container=0;dropTarget=0;collapsible=0;recursiveResize=0;outlineConnect=0;portConstraint=eastwest;newEdgeStyle={&quot;edgeStyle&quot;:&quot;elbowEdgeStyle&quot;,&quot;elbow&quot;:&quot;vertical&quot;,&quot;curved&quot;:0,&quot;rounded&quot;:0};" parent="1" vertex="1">
          <mxGeometry x="170" y="100" width="180" height="780" as="geometry" />
        </mxCell>
        <mxCell id="kEFKGJNfDM-Wt6kaFjFb-24" value="" style="html=1;points=[];perimeter=orthogonalPerimeter;outlineConnect=0;targetShapes=umlLifeline;portConstraint=eastwest;newEdgeStyle={&quot;edgeStyle&quot;:&quot;elbowEdgeStyle&quot;,&quot;elbow&quot;:&quot;vertical&quot;,&quot;curved&quot;:0,&quot;rounded&quot;:0};" parent="kEFKGJNfDM-Wt6kaFjFb-23" vertex="1">
          <mxGeometry x="85" y="80" width="10" height="630" as="geometry" />
        </mxCell>
        <mxCell id="kEFKGJNfDM-Wt6kaFjFb-59" value="" style="edgeStyle=segmentEdgeStyle;endArrow=classic;html=1;curved=0;rounded=0;endSize=8;startSize=8;" parent="kEFKGJNfDM-Wt6kaFjFb-23" edge="1">
          <mxGeometry width="50" height="50" relative="1" as="geometry">
            <mxPoint x="85" y="480" as="sourcePoint" />
            <mxPoint x="85" y="540" as="targetPoint" />
            <Array as="points">
              <mxPoint x="30" y="480" />
              <mxPoint x="30" y="540" />
            </Array>
          </mxGeometry>
        </mxCell>
        <mxCell id="kEFKGJNfDM-Wt6kaFjFb-25" value="QR Handler" style="shape=umlLifeline;perimeter=lifelinePerimeter;whiteSpace=wrap;html=1;container=0;dropTarget=0;collapsible=0;recursiveResize=0;outlineConnect=0;portConstraint=eastwest;newEdgeStyle={&quot;edgeStyle&quot;:&quot;elbowEdgeStyle&quot;,&quot;elbow&quot;:&quot;vertical&quot;,&quot;curved&quot;:0,&quot;rounded&quot;:0};" parent="1" vertex="1">
          <mxGeometry x="510" y="100" width="100" height="780" as="geometry" />
        </mxCell>
        <mxCell id="kEFKGJNfDM-Wt6kaFjFb-26" value="" style="html=1;points=[];perimeter=orthogonalPerimeter;outlineConnect=0;targetShapes=umlLifeline;portConstraint=eastwest;newEdgeStyle={&quot;edgeStyle&quot;:&quot;elbowEdgeStyle&quot;,&quot;elbow&quot;:&quot;vertical&quot;,&quot;curved&quot;:0,&quot;rounded&quot;:0};" parent="kEFKGJNfDM-Wt6kaFjFb-25" vertex="1">
          <mxGeometry x="45" y="80" width="10" height="630" as="geometry" />
        </mxCell>
        <mxCell id="kEFKGJNfDM-Wt6kaFjFb-28" style="edgeStyle=elbowEdgeStyle;rounded=0;orthogonalLoop=1;jettySize=auto;html=1;elbow=vertical;curved=0;" parent="1" edge="1">
          <mxGeometry relative="1" as="geometry">
            <mxPoint x="265" y="220.00333333333344" as="sourcePoint" />
            <mxPoint x="555" y="220.00333333333344" as="targetPoint" />
          </mxGeometry>
        </mxCell>
        <mxCell id="kEFKGJNfDM-Wt6kaFjFb-41" value="" style="shape=actor;whiteSpace=wrap;html=1;" parent="1" vertex="1">
          <mxGeometry x="750" y="80" width="40" height="60" as="geometry" />
        </mxCell>
        <mxCell id="kEFKGJNfDM-Wt6kaFjFb-42" value="User" style="text;html=1;align=center;verticalAlign=middle;resizable=0;points=[];autosize=1;strokeColor=none;fillColor=none;" parent="1" vertex="1">
          <mxGeometry x="745" y="140" width="50" height="30" as="geometry" />
        </mxCell>
        <mxCell id="kEFKGJNfDM-Wt6kaFjFb-43" value="" style="endArrow=classic;html=1;rounded=0;" parent="1" edge="1">
          <mxGeometry width="50" height="50" relative="1" as="geometry">
            <mxPoint x="765" y="260" as="sourcePoint" />
            <mxPoint x="565" y="260" as="targetPoint" />
          </mxGeometry>
        </mxCell>
        <mxCell id="kEFKGJNfDM-Wt6kaFjFb-44" value="Scan QR" style="text;html=1;align=center;verticalAlign=middle;resizable=0;points=[];autosize=1;strokeColor=none;fillColor=none;" parent="1" vertex="1">
          <mxGeometry x="615" y="230" width="70" height="30" as="geometry" />
        </mxCell>
        <mxCell id="kEFKGJNfDM-Wt6kaFjFb-45" value="" style="endArrow=classic;html=1;rounded=0;" parent="1" edge="1">
          <mxGeometry width="50" height="50" relative="1" as="geometry">
            <mxPoint x="555" y="340" as="sourcePoint" />
            <mxPoint x="265" y="340" as="targetPoint" />
          </mxGeometry>
        </mxCell>
        <mxCell id="kEFKGJNfDM-Wt6kaFjFb-46" value="Request for authentication page" style="text;html=1;align=center;verticalAlign=middle;resizable=0;points=[];autosize=1;strokeColor=none;fillColor=none;" parent="1" vertex="1">
          <mxGeometry x="305" y="308" width="190" height="30" as="geometry" />
        </mxCell>
        <mxCell id="kEFKGJNfDM-Wt6kaFjFb-48" value="" style="html=1;points=[];perimeter=orthogonalPerimeter;outlineConnect=0;targetShapes=umlLifeline;portConstraint=eastwest;newEdgeStyle={&quot;edgeStyle&quot;:&quot;elbowEdgeStyle&quot;,&quot;elbow&quot;:&quot;vertical&quot;,&quot;curved&quot;:0,&quot;rounded&quot;:0};" parent="1" vertex="1">
          <mxGeometry x="765" y="180" width="10" height="630" as="geometry" />
        </mxCell>
        <mxCell id="kEFKGJNfDM-Wt6kaFjFb-58" value="User input ID and password&lt;br&gt;then submit" style="text;html=1;align=center;verticalAlign=middle;resizable=0;points=[];autosize=1;strokeColor=none;fillColor=none;" parent="1" vertex="1">
          <mxGeometry x="340" y="470" width="170" height="40" as="geometry" />
        </mxCell>
        <mxCell id="kEFKGJNfDM-Wt6kaFjFb-60" value="&lt;blockquote style=&quot;margin: 0 0 0 40px; border: none; padding: 0px;&quot;&gt;Expired session token for &lt;br&gt;the authentication page&lt;/blockquote&gt;" style="text;html=1;align=center;verticalAlign=middle;resizable=0;points=[];autosize=1;strokeColor=none;fillColor=none;" parent="1" vertex="1">
          <mxGeometry x="5" y="590" width="200" height="40" as="geometry" />
        </mxCell>
        <mxCell id="kEFKGJNfDM-Wt6kaFjFb-62" style="edgeStyle=elbowEdgeStyle;rounded=0;orthogonalLoop=1;jettySize=auto;html=1;elbow=vertical;curved=0;" parent="1" edge="1">
          <mxGeometry relative="1" as="geometry">
            <mxPoint x="265" y="690" as="sourcePoint" />
            <mxPoint x="555" y="690" as="targetPoint" />
          </mxGeometry>
        </mxCell>
        <mxCell id="kEFKGJNfDM-Wt6kaFjFb-63" value="Generate new QR with new Session&amp;nbsp;&lt;span style=&quot;background-color: transparent; color: light-dark(rgb(0, 0, 0), rgb(255, 255, 255));&quot;&gt;Token&lt;/span&gt;&lt;div&gt;Refresh page&lt;/div&gt;" style="text;html=1;align=center;verticalAlign=middle;resizable=0;points=[];autosize=1;strokeColor=none;fillColor=none;" parent="1" vertex="1">
          <mxGeometry x="295" y="653" width="250" height="40" as="geometry" />
        </mxCell>
        <mxCell id="4X3OJZ9cqcNjcqgT0LEf-1" style="edgeStyle=elbowEdgeStyle;rounded=0;orthogonalLoop=1;jettySize=auto;html=1;elbow=vertical;curved=0;" edge="1" parent="1">
          <mxGeometry relative="1" as="geometry">
            <mxPoint x="765" y="520" as="sourcePoint" />
            <mxPoint x="265" y="520" as="targetPoint" />
          </mxGeometry>
        </mxCell>
        <mxCell id="4X3OJZ9cqcNjcqgT0LEf-2" value="" style="endArrow=none;dashed=1;html=1;rounded=0;" edge="1" parent="1" target="4X3OJZ9cqcNjcqgT0LEf-12">
          <mxGeometry width="50" height="50" relative="1" as="geometry">
            <mxPoint x="770" y="880" as="sourcePoint" />
            <mxPoint x="680" y="670" as="targetPoint" />
          </mxGeometry>
        </mxCell>
        <mxCell id="4X3OJZ9cqcNjcqgT0LEf-3" value="Authentication page" style="html=1;verticalAlign=bottom;endArrow=open;dashed=1;endSize=8;curved=0;rounded=0;" edge="1" parent="1" target="4X3OJZ9cqcNjcqgT0LEf-17">
          <mxGeometry x="-0.4343" y="10" relative="1" as="geometry">
            <mxPoint x="270" y="420" as="sourcePoint" />
            <mxPoint x="520" y="425.5" as="targetPoint" />
            <mxPoint as="offset" />
          </mxGeometry>
        </mxCell>
        <mxCell id="4X3OJZ9cqcNjcqgT0LEf-4" value="Generate QR with a session token &lt;br&gt;and&lt;br&gt;&amp;nbsp;wait for user to scan" style="text;html=1;align=center;verticalAlign=middle;resizable=0;points=[];autosize=1;strokeColor=none;fillColor=none;" vertex="1" parent="1">
          <mxGeometry x="305" y="160" width="210" height="60" as="geometry" />
        </mxCell>
        <mxCell id="4X3OJZ9cqcNjcqgT0LEf-5" value="AuthenticationController" style="shape=umlLifeline;perimeter=lifelinePerimeter;whiteSpace=wrap;html=1;container=0;dropTarget=0;collapsible=0;recursiveResize=0;outlineConnect=0;portConstraint=eastwest;newEdgeStyle={&quot;edgeStyle&quot;:&quot;elbowEdgeStyle&quot;,&quot;elbow&quot;:&quot;vertical&quot;,&quot;curved&quot;:0,&quot;rounded&quot;:0};" vertex="1" parent="1">
          <mxGeometry x="170" y="100" width="180" height="780" as="geometry" />
        </mxCell>
        <mxCell id="4X3OJZ9cqcNjcqgT0LEf-6" value="" style="html=1;points=[];perimeter=orthogonalPerimeter;outlineConnect=0;targetShapes=umlLifeline;portConstraint=eastwest;newEdgeStyle={&quot;edgeStyle&quot;:&quot;elbowEdgeStyle&quot;,&quot;elbow&quot;:&quot;vertical&quot;,&quot;curved&quot;:0,&quot;rounded&quot;:0};" vertex="1" parent="4X3OJZ9cqcNjcqgT0LEf-5">
          <mxGeometry x="85" y="80" width="10" height="630" as="geometry" />
        </mxCell>
        <mxCell id="4X3OJZ9cqcNjcqgT0LEf-7" value="" style="edgeStyle=segmentEdgeStyle;endArrow=classic;html=1;curved=0;rounded=0;endSize=8;startSize=8;" edge="1" parent="4X3OJZ9cqcNjcqgT0LEf-5">
          <mxGeometry width="50" height="50" relative="1" as="geometry">
            <mxPoint x="85" y="480" as="sourcePoint" />
            <mxPoint x="85" y="540" as="targetPoint" />
            <Array as="points">
              <mxPoint x="30" y="480" />
              <mxPoint x="30" y="540" />
            </Array>
          </mxGeometry>
        </mxCell>
        <mxCell id="4X3OJZ9cqcNjcqgT0LEf-8" value="QR Handler" style="shape=umlLifeline;perimeter=lifelinePerimeter;whiteSpace=wrap;html=1;container=0;dropTarget=0;collapsible=0;recursiveResize=0;outlineConnect=0;portConstraint=eastwest;newEdgeStyle={&quot;edgeStyle&quot;:&quot;elbowEdgeStyle&quot;,&quot;elbow&quot;:&quot;vertical&quot;,&quot;curved&quot;:0,&quot;rounded&quot;:0};" vertex="1" parent="1">
          <mxGeometry x="510" y="100" width="100" height="780" as="geometry" />
        </mxCell>
        <mxCell id="4X3OJZ9cqcNjcqgT0LEf-9" value="" style="html=1;points=[];perimeter=orthogonalPerimeter;outlineConnect=0;targetShapes=umlLifeline;portConstraint=eastwest;newEdgeStyle={&quot;edgeStyle&quot;:&quot;elbowEdgeStyle&quot;,&quot;elbow&quot;:&quot;vertical&quot;,&quot;curved&quot;:0,&quot;rounded&quot;:0};" vertex="1" parent="4X3OJZ9cqcNjcqgT0LEf-8">
          <mxGeometry x="45" y="80" width="10" height="630" as="geometry" />
        </mxCell>
        <mxCell id="4X3OJZ9cqcNjcqgT0LEf-10" style="edgeStyle=elbowEdgeStyle;rounded=0;orthogonalLoop=1;jettySize=auto;html=1;elbow=vertical;curved=0;" edge="1" parent="1">
          <mxGeometry relative="1" as="geometry">
            <mxPoint x="265" y="220.00333333333344" as="sourcePoint" />
            <mxPoint x="555" y="220.00333333333344" as="targetPoint" />
          </mxGeometry>
        </mxCell>
        <mxCell id="4X3OJZ9cqcNjcqgT0LEf-11" value="" style="shape=actor;whiteSpace=wrap;html=1;" vertex="1" parent="1">
          <mxGeometry x="750" y="80" width="40" height="60" as="geometry" />
        </mxCell>
        <mxCell id="4X3OJZ9cqcNjcqgT0LEf-12" value="User" style="text;html=1;align=center;verticalAlign=middle;resizable=0;points=[];autosize=1;strokeColor=none;fillColor=none;" vertex="1" parent="1">
          <mxGeometry x="745" y="140" width="50" height="30" as="geometry" />
        </mxCell>
        <mxCell id="4X3OJZ9cqcNjcqgT0LEf-13" value="" style="endArrow=classic;html=1;rounded=0;" edge="1" parent="1">
          <mxGeometry width="50" height="50" relative="1" as="geometry">
            <mxPoint x="765" y="260" as="sourcePoint" />
            <mxPoint x="565" y="260" as="targetPoint" />
          </mxGeometry>
        </mxCell>
        <mxCell id="4X3OJZ9cqcNjcqgT0LEf-14" value="Scan QR" style="text;html=1;align=center;verticalAlign=middle;resizable=0;points=[];autosize=1;strokeColor=none;fillColor=none;" vertex="1" parent="1">
          <mxGeometry x="615" y="230" width="70" height="30" as="geometry" />
        </mxCell>
        <mxCell id="4X3OJZ9cqcNjcqgT0LEf-15" value="" style="endArrow=classic;html=1;rounded=0;" edge="1" parent="1">
          <mxGeometry width="50" height="50" relative="1" as="geometry">
            <mxPoint x="555" y="340" as="sourcePoint" />
            <mxPoint x="265" y="340" as="targetPoint" />
          </mxGeometry>
        </mxCell>
        <mxCell id="4X3OJZ9cqcNjcqgT0LEf-16" value="Request for authentication page" style="text;html=1;align=center;verticalAlign=middle;resizable=0;points=[];autosize=1;strokeColor=none;fillColor=none;" vertex="1" parent="1">
          <mxGeometry x="305" y="308" width="190" height="30" as="geometry" />
        </mxCell>
        <mxCell id="4X3OJZ9cqcNjcqgT0LEf-17" value="" style="html=1;points=[];perimeter=orthogonalPerimeter;outlineConnect=0;targetShapes=umlLifeline;portConstraint=eastwest;newEdgeStyle={&quot;edgeStyle&quot;:&quot;elbowEdgeStyle&quot;,&quot;elbow&quot;:&quot;vertical&quot;,&quot;curved&quot;:0,&quot;rounded&quot;:0};" vertex="1" parent="1">
          <mxGeometry x="765" y="180" width="10" height="630" as="geometry" />
        </mxCell>
        <mxCell id="4X3OJZ9cqcNjcqgT0LEf-18" value="User input ID and password&lt;br&gt;then submit" style="text;html=1;align=center;verticalAlign=middle;resizable=0;points=[];autosize=1;strokeColor=none;fillColor=none;" vertex="1" parent="1">
          <mxGeometry x="340" y="470" width="170" height="40" as="geometry" />
        </mxCell>
        <mxCell id="4X3OJZ9cqcNjcqgT0LEf-19" value="&lt;blockquote style=&quot;margin: 0 0 0 40px; border: none; padding: 0px;&quot;&gt;Expired session token for &lt;br&gt;the authentication page&lt;/blockquote&gt;" style="text;html=1;align=center;verticalAlign=middle;resizable=0;points=[];autosize=1;strokeColor=none;fillColor=none;" vertex="1" parent="1">
          <mxGeometry x="5" y="590" width="200" height="40" as="geometry" />
        </mxCell>
        <mxCell id="4X3OJZ9cqcNjcqgT0LEf-20" style="edgeStyle=elbowEdgeStyle;rounded=0;orthogonalLoop=1;jettySize=auto;html=1;elbow=vertical;curved=0;" edge="1" parent="1">
          <mxGeometry relative="1" as="geometry">
            <mxPoint x="265" y="690" as="sourcePoint" />
            <mxPoint x="555" y="690" as="targetPoint" />
          </mxGeometry>
        </mxCell>
        <mxCell id="4X3OJZ9cqcNjcqgT0LEf-21" value="Generate new QR with new Session&amp;nbsp;&lt;span style=&quot;background-color: transparent; color: light-dark(rgb(0, 0, 0), rgb(255, 255, 255));&quot;&gt;Token&lt;/span&gt;&lt;div&gt;Refresh page&lt;/div&gt;" style="text;html=1;align=center;verticalAlign=middle;resizable=0;points=[];autosize=1;strokeColor=none;fillColor=none;" vertex="1" parent="1">
          <mxGeometry x="295" y="653" width="250" height="40" as="geometry" />
        </mxCell>
      </root>
    </mxGraphModel>
  </diagram>
</mxfile>
